<?xml version="1.0" encoding="utf-8"?>
<!-- Generator: Adobe Illustrator 24.1.1, SVG Export Plug-In . SVG Version: 6.00 Build 0)  -->
<svg version="1.1" id="Layer_1" xmlns="http://www.w3.org/2000/svg" xmlns:xlink="http://www.w3.org/1999/xlink" x="0px" y="0px"
	 viewBox="0 0 500 300" style="enable-background:new 0 0 500 300;" xml:space="preserve">
<style type="text/css">
	.st0{fill:#0D61A8;}
	.st1{fill:#3B3835;}
</style>
<g>
	<g>
		<path class="st0" d="M218.03,176.11c-0.02,0.61-0.06,1.24-0.14,1.91l2.49-4.51l-0.27-1.47l2.5-0.38l0.91,6.25l1.15-3.92
			c0.09-0.38,0.14-0.67,0.15-0.96c0.01-0.29-0.02-0.59-0.12-1.01l2.62-0.5c0.1,0.54,0.16,0.99,0.14,1.47
			c-0.02,0.63-0.18,1.32-0.62,2.35l-2.11,5.66h-3.12l-0.66-4.23l-2.44,4.23h-3.02c0.12-3.94-0.02-6.41-0.3-8.99l2.6-0.4
			C217.98,173.05,218.09,174.49,218.03,176.11z"/>
		<path class="st0" d="M234.26,173.95c-1.21,0.65-1.66,0.9-2.75,1.57l-1.17,5.49h-2.7l1.9-9.08l2.38-0.4l-0.1,1.26
			c0.92-0.54,1.66-0.92,2.47-1.26L234.26,173.95z"/>
		<path class="st0" d="M235.86,171.91l2.79-0.38l-2.01,9.48h-2.7L235.86,171.91z M236.73,167.79l2.79-0.38l-0.62,2.87l-2.77,0.38
			L236.73,167.79z"/>
		<path class="st0" d="M243.61,173.86l-0.98,4.65c-0.02,0.1-0.04,0.19-0.05,0.25c0,0.13,0.07,0.19,0.26,0.19
			c0.46,0,0.98-0.19,1.47-0.38l0.47,1.87c-0.78,0.42-1.9,0.77-2.99,0.77c-1.36,0-2.06-0.65-2.02-1.76c0-0.13,0.03-0.27,0.05-0.4
			l1.1-5.18h-1.38l0.46-2.16h1.38l0.46-2.24l2.79-0.38l-0.55,2.62h2.22l-0.61,2.16H243.61z"/>
		<path class="st0" d="M246.82,175.02c0.46-2.14,1.46-3.52,4.41-3.52c1.76,0,3.07,0.76,3.02,2.33c-0.06,1.82-1.03,2.66-3.35,3.35
			c-1.14,0.34-1.16,0.34-1.97,0.55l-0.14,0.65c-0.07,0.34-0.04,0.65,0.46,0.65c0.98,0,2.41-0.48,3.69-1.03l0.45,1.91
			c-1.15,0.71-2.95,1.28-4.59,1.28c-1.93,0-2.72-0.84-2.67-2.43c0.01-0.34,0.06-0.73,0.15-1.13L246.82,175.02z M251.73,174.12
			c0.01-0.33-0.27-0.54-0.76-0.54c-0.98,0-1.28,0.55-1.44,1.32l-0.14,0.65c0.46-0.12,0.67-0.15,1.23-0.33
			C251.35,175.02,251.71,174.68,251.73,174.12z"/>
		<path class="st0" d="M261.2,167.89l2.79-0.38l-2.84,13.5h-2.7L261.2,167.89z"/>
		<path class="st0" d="M264.33,175.02c0.46-2.14,1.46-3.52,4.41-3.52c1.76,0,3.07,0.76,3.02,2.33c-0.06,1.82-1.03,2.66-3.35,3.35
			c-1.14,0.34-1.16,0.34-1.97,0.55l-0.14,0.65c-0.07,0.34-0.04,0.65,0.46,0.65c0.98,0,2.41-0.48,3.69-1.03l0.45,1.91
			c-1.15,0.71-2.95,1.28-4.59,1.28c-1.93,0-2.72-0.84-2.67-2.43c0.01-0.34,0.06-0.73,0.15-1.13L264.33,175.02z M269.24,174.12
			c0.01-0.33-0.27-0.54-0.76-0.54c-0.98,0-1.28,0.55-1.44,1.32l-0.14,0.65c0.46-0.12,0.67-0.15,1.23-0.33
			C268.87,175.02,269.22,174.68,269.24,174.12z"/>
		<path class="st0" d="M271.98,180.59l0.59-1.99c0.7,0.25,1.49,0.48,2.51,0.48c0.9,0,0.96-0.27,1.06-0.71
			c0.09-0.42-0.17-0.65-1.2-1.2c-1.91-1.03-1.97-1.72-1.67-3.12c0.43-2.01,1.04-2.54,3.63-2.54c0.88,0,2,0.19,2.76,0.44l-0.51,2.03
			c-0.68-0.19-1.69-0.34-2.34-0.34c-0.8,0-0.92,0.1-1.04,0.59c-0.09,0.44,0,0.54,0.88,1.01c2.1,1.15,2.41,1.55,2.09,3.02
			c-0.46,2.1-1.1,2.95-3.89,2.95C273.98,181.2,272.79,180.95,271.98,180.59z"/>
		<path class="st0" d="M279.7,180.59l0.59-1.99c0.7,0.25,1.49,0.48,2.51,0.48c0.9,0,0.96-0.27,1.06-0.71
			c0.09-0.42-0.17-0.65-1.2-1.2c-1.91-1.03-1.97-1.72-1.67-3.12c0.43-2.01,1.04-2.54,3.63-2.54c0.88,0,2,0.19,2.76,0.44l-0.51,2.03
			c-0.68-0.19-1.69-0.34-2.34-0.34c-0.8,0-0.92,0.1-1.04,0.59c-0.09,0.44,0,0.54,0.88,1.01c2.1,1.15,2.41,1.55,2.09,3.02
			c-0.46,2.1-1.1,2.95-3.89,2.95C281.71,181.2,280.51,180.95,279.7,180.59z"/>
		<path class="st0" d="M287.09,183.09l1.55-2.08h-1.01l0.66-3.17h2.7l-0.73,3.4l-2.22,2.64L287.09,183.09z"/>
		<path class="st0" d="M301.83,181.01l-0.05-0.8c-0.69,0.55-1.66,0.99-3,0.99c-2.03,0-2.48-1.22-2.04-3.31l0.53-2.5
			c0.46-2.22,1.09-3.88,5.01-3.88c0.29,0,0.88,0.04,1.13,0.1l0.78-3.71l2.77-0.38l-2.84,13.5H301.83z M299.36,178.22
			c-0.11,0.5,0.01,0.73,0.49,0.73c0.96,0,1.66-0.5,2.19-0.96l0.87-4.15c-0.3-0.06-0.67-0.08-1.05-0.08c-1.4,0-1.71,0.75-1.91,1.64
			L299.36,178.22z"/>
		<path class="st0" d="M306.61,178.08c0.01-0.21,0.04-0.44,0.08-0.65l0.46-2.16c0.5-2.39,1.72-3.77,4.97-3.77
			c2.5,0,3.58,1.43,3.52,3.1c-0.01,0.21-0.04,0.44-0.08,0.67l-0.46,2.16c-0.48,2.24-1.6,3.77-4.99,3.77
			C307.75,181.2,306.55,179.78,306.61,178.08z M312.94,174.81c0.02-0.69-0.38-1.05-1.26-1.05c-1.01,0-1.63,0.52-1.81,1.43
			l-0.48,2.31c-0.02,0.13-0.05,0.27-0.05,0.38c-0.02,0.67,0.38,1.05,1.26,1.05c1.03,0,1.62-0.52,1.81-1.43l0.48-2.31
			C312.91,175.06,312.94,174.93,312.94,174.81z"/>
		<path class="st0" d="M332.1,174.68c0.02-0.11,0.05-0.21,0.05-0.29c0.01-0.19-0.09-0.27-0.35-0.27c-0.5,0-1.68,0.5-2.46,0.9
			l-1.26,5.99h-2.68l1.33-6.33c0.02-0.11,0.05-0.21,0.05-0.29c0.01-0.19-0.09-0.27-0.35-0.27c-0.5,0-1.7,0.5-2.44,0.88l-1.26,6h-2.7
			l1.9-9.08l2.38-0.4l-0.05,1.03c1.48-0.69,2.64-1.05,3.71-1.05c0.92,0,1.38,0.4,1.57,1.09c1.44-0.82,2.73-1.09,3.8-1.09
			c1.24,0,1.68,0.71,1.64,1.89c-0.01,0.33-0.04,0.69-0.13,1.07l-1.38,6.54h-2.7L332.1,174.68z"/>
		<path class="st0" d="M335.88,178.08c0.01-0.21,0.04-0.44,0.08-0.65l0.46-2.16c0.5-2.39,1.72-3.77,4.97-3.77
			c2.5,0,3.58,1.43,3.52,3.1c-0.01,0.21-0.04,0.44-0.08,0.67l-0.46,2.16c-0.48,2.24-1.6,3.77-4.99,3.77
			C337.02,181.2,335.82,179.78,335.88,178.08z M342.21,174.81c0.02-0.69-0.38-1.05-1.26-1.05c-1.01,0-1.63,0.52-1.81,1.43
			l-0.48,2.31c-0.02,0.13-0.05,0.27-0.05,0.38c-0.02,0.67,0.38,1.05,1.26,1.05c1.03,0,1.62-0.52,1.81-1.43l0.48-2.31
			C342.18,175.06,342.21,174.93,342.21,174.81z"/>
		<path class="st0" d="M352.07,173.95c-1.21,0.65-1.66,0.9-2.75,1.57l-1.17,5.49h-2.7l1.9-9.08l2.38-0.4l-0.1,1.26
			c0.92-0.54,1.66-0.92,2.47-1.26L352.07,173.95z"/>
		<path class="st0" d="M352.68,175.02c0.46-2.14,1.46-3.52,4.41-3.52c1.76,0,3.07,0.76,3.02,2.33c-0.06,1.82-1.03,2.66-3.35,3.35
			c-1.14,0.34-1.16,0.34-1.97,0.55l-0.14,0.65c-0.07,0.34-0.04,0.65,0.46,0.65c0.98,0,2.41-0.48,3.69-1.03l0.45,1.91
			c-1.15,0.71-2.95,1.28-4.59,1.28c-1.93,0-2.72-0.84-2.67-2.43c0.01-0.34,0.06-0.73,0.15-1.13L352.68,175.02z M357.59,174.12
			c0.01-0.33-0.27-0.54-0.76-0.54c-0.98,0-1.28,0.55-1.44,1.32l-0.14,0.65c0.46-0.12,0.67-0.15,1.23-0.33
			C357.21,175.02,357.57,174.68,357.59,174.12z"/>
		<path class="st0" d="M361.2,177.83h2.7l-0.66,3.17h-2.7L361.2,177.83z"/>
	</g>
</g>
<path class="st0" d="M114.09,126.57c-4.56,6.55-3.99,15.06-0.51,22.02c0.08,0.17,0.17,0.33,0.25,0.49c0.05,0.11,0.1,0.21,0.16,0.32
	c0.03,0.06,0.07,0.12,0.1,0.18c0.06,0.11,0.12,0.22,0.18,0.33c0.11,0.19,0.22,0.38,0.34,0.57c0.06,0.1,0.12,0.21,0.19,0.31
	c0.12,0.2,0.26,0.4,0.38,0.6c0.06,0.09,0.11,0.17,0.17,0.25c0.18,0.27,0.36,0.54,0.56,0.81c0,0.01,0.01,0.02,0.01,0.02
	c0.03,0.04,0.06,0.09,0.09,0.13c0.17,0.23,0.34,0.45,0.51,0.68c0.06,0.08,0.13,0.16,0.19,0.24c0.16,0.19,0.32,0.39,0.47,0.58
	c0.06,0.07,0.12,0.14,0.18,0.21c0.21,0.25,0.43,0.5,0.65,0.75c0,0,0.01,0.01,0.01,0.01c0.01,0.01,0.01,0.02,0.03,0.03
	c0.22,0.24,0.44,0.47,0.66,0.7c0.07,0.07,0.14,0.14,0.22,0.21c0.17,0.17,0.34,0.35,0.53,0.52c0.07,0.07,0.15,0.14,0.22,0.21
	c0.24,0.22,0.48,0.45,0.73,0.66c0,0,0.01,0.01,0.01,0.01c0.04,0.04,0.09,0.07,0.12,0.11c0.22,0.19,0.44,0.38,0.66,0.56
	c0.09,0.07,0.18,0.15,0.27,0.22c0.19,0.15,0.37,0.29,0.56,0.43c0.1,0.07,0.19,0.15,0.29,0.22c0.2,0.15,0.41,0.3,0.62,0.44
	c0.07,0.05,0.15,0.11,0.23,0.16c0.02,0.02,0.04,0.03,0.06,0.05c0.21,0.13,0.4,0.26,0.6,0.4c0.09,0.06,0.18,0.11,0.26,0.17
	c0.31,0.2,0.63,0.39,0.94,0.58c0.09,0.05,0.18,0.1,0.26,0.15c0.23,0.13,0.47,0.27,0.71,0.39c0.13,0.07,0.26,0.14,0.4,0.2
	c0.16,0.09,0.33,0.18,0.5,0.27c0.04,0.02,0.08,0.03,0.12,0.05c0.07,0.03,0.14,0.07,0.21,0.1c0.26,0.13,0.53,0.25,0.81,0.37
	c0.05,0.02,0.11,0.05,0.16,0.07c0.31,0.13,0.62,0.26,0.94,0.39c0.07,0.03,0.15,0.06,0.23,0.09c0.29,0.11,0.59,0.22,0.88,0.33
	c0.04,0.02,0.07,0.03,0.11,0.04c0.33,0.11,0.65,0.22,0.99,0.32c0.08,0.02,0.16,0.05,0.24,0.07c0.34,0.1,0.67,0.22,1.02,0.29
	c22.03,4.02,28.43-13.24,28.43-13.24c-5.38,7-14.92,8.85-23.96,6.79c-0.34-0.08-0.67-0.18-1.01-0.28c-0.08-0.02-0.17-0.05-0.25-0.08
	c-0.33-0.1-0.65-0.21-0.97-0.31c-0.04-0.01-0.09-0.03-0.14-0.05c-0.29-0.1-0.57-0.21-0.85-0.32c-0.08-0.03-0.16-0.06-0.24-0.09
	c-0.31-0.12-0.62-0.26-0.93-0.39c-0.07-0.02-0.12-0.05-0.19-0.08c-0.26-0.12-0.52-0.24-0.78-0.36c-0.08-0.03-0.15-0.07-0.23-0.11
	c-0.2-0.1-0.4-0.2-0.6-0.31c-0.14-0.07-0.27-0.14-0.4-0.21c-0.24-0.13-0.49-0.27-0.73-0.4c-0.07-0.05-0.16-0.09-0.24-0.14
	c-0.31-0.19-0.63-0.38-0.94-0.58c-0.09-0.06-0.17-0.11-0.25-0.17c-0.23-0.14-0.45-0.29-0.67-0.44c-0.07-0.05-0.14-0.1-0.22-0.15
	c-0.21-0.15-0.42-0.3-0.63-0.46c-0.09-0.07-0.18-0.14-0.28-0.21c-0.19-0.15-0.38-0.29-0.57-0.45c-0.08-0.07-0.17-0.14-0.25-0.2
	c-0.25-0.2-0.48-0.4-0.71-0.6c-0.02-0.02-0.06-0.04-0.08-0.07c-0.25-0.22-0.5-0.45-0.75-0.68c-0.07-0.07-0.14-0.14-0.21-0.2
	c-0.18-0.18-0.36-0.35-0.53-0.52c-0.07-0.07-0.14-0.14-0.21-0.21c-0.22-0.23-0.44-0.46-0.66-0.7c-0.01-0.01-0.02-0.02-0.03-0.03
	c-0.23-0.25-0.45-0.5-0.67-0.76c-0.06-0.07-0.12-0.14-0.18-0.21c-0.16-0.2-0.32-0.4-0.49-0.6c-0.05-0.08-0.11-0.15-0.17-0.22
	c-0.19-0.24-0.37-0.49-0.56-0.74c-5.02-6.84-6.83-16.29-2.81-24.04"/>
<path class="st0" d="M128.24,121.05c-3.3,4.74-3.12,11.09-0.55,16.1c0.43,0.84,0.91,1.66,1.46,2.43c0.49,0.71,1.04,1.55,1.7,2.12
	c0.23,0.26,0.48,0.52,0.74,0.77c0.06,0.06,0.13,0.13,0.19,0.19c0.25,0.24,0.5,0.47,0.75,0.7c0.01,0.01,0.02,0.02,0.03,0.03
	c0,0,0.01,0.01,0.01,0.01c0.29,0.25,0.58,0.49,0.88,0.73c0.07,0.05,0.13,0.11,0.21,0.16c0.3,0.23,0.6,0.46,0.91,0.68
	c0.01,0,0.02,0.01,0.03,0.02c0.13,0.1,0.28,0.19,0.42,0.28c0.06,0.04,0.13,0.09,0.19,0.13c0.23,0.15,0.45,0.29,0.68,0.42
	c0.03,0.02,0.07,0.04,0.1,0.05c0.19,0.12,0.4,0.23,0.61,0.34c0.07,0.04,0.14,0.08,0.21,0.12c0.14,0.07,0.28,0.15,0.42,0.22
	c0.02,0.01,0.04,0.02,0.07,0.03c0.29,0.14,0.59,0.28,0.88,0.41c0.07,0.03,0.13,0.05,0.2,0.08c0.24,0.1,0.48,0.2,0.72,0.29
	c0.11,0.04,0.21,0.08,0.31,0.11c0.22,0.08,0.44,0.15,0.66,0.23c0.11,0.04,0.21,0.07,0.3,0.1c0.31,0.1,0.63,0.23,0.96,0.28
	c17.01,2.82,20.94-10.28,20.94-10.28c-3.54,5.1-10.4,7.53-17.71,5.63c-0.33-0.08-0.65-0.18-0.96-0.28c-0.1-0.03-0.19-0.06-0.29-0.09
	c-0.23-0.07-0.46-0.15-0.68-0.23c-0.1-0.04-0.21-0.07-0.31-0.11c-0.24-0.1-0.49-0.19-0.72-0.29c-0.07-0.03-0.14-0.05-0.19-0.08
	c-0.3-0.13-0.6-0.27-0.89-0.41c-0.15-0.08-0.29-0.15-0.44-0.23c-0.09-0.04-0.18-0.09-0.25-0.13c-0.2-0.1-0.38-0.21-0.57-0.32
	c-0.04-0.02-0.09-0.05-0.13-0.07c-0.23-0.14-0.46-0.28-0.68-0.42c-0.07-0.04-0.14-0.09-0.21-0.14c-0.15-0.1-0.29-0.19-0.45-0.29
	c-0.31-0.21-0.61-0.44-0.91-0.67c-0.07-0.06-0.14-0.11-0.21-0.17c-3.21-2.53-5.75-5.98-6.95-9.9c-1.27-4.06-0.99-8.63,1.2-12.33"/>
<path class="st0" d="M140.13,116.93c-1.95,2.86-2.14,6.41-0.79,9.56c1.43,3.35,4.34,5.98,7.74,7.23c0.14,0.05,0.28,0.1,0.42,0.15
	c0.06,0.02,0.12,0.04,0.19,0.06c0.2,0.06,0.4,0.14,0.6,0.18c9.39,1.81,11.94-4.82,12.62-5.8c-2.24,3.21-5.99,3.98-10.59,2.87
	c-0.36-0.09-0.76-0.22-1.11-0.35c-0.45-0.16-0.89-0.34-1.33-0.55c-0.81-0.39-1.59-0.87-2.32-1.42c-4.12-3.12-6.67-9.08-3.99-13.94"
	/>
<path class="st1" d="M357.81,130.32l0.37,1.56c0.1,0.45-0.18,0.81-0.63,0.81"/>
<path class="st1" d="M328.18,127.65c-0.09,0.43-0.21,0.98-0.28,1.34l-3.25,15.22l3.42-16.03L328.18,127.65z"/>
<polygon class="st1" points="230.78,137.83 228.99,144.19 230.78,137.84 "/>
<path class="st1" d="M358.18,131.88l-0.94-3.96c-0.74-2.87-2.83-4.22-7.54-4.22h-19.79c-0.46,0-0.91,0.21-1,0.65l-7.51,35.61
	c-0.1,0.45-0.13,0.77-0.08,0.99c0.05,0.23,0.93,0.19,1.38,0.19h6.86c0.46,0,1.29,0.03,1.53-0.06c0.25-0.1,0.37-0.78,0.46-1.23
	l2.42-12.49l2.96-13.85c0.1-0.44,0.54-0.81,1-0.81l19.61-0.01C358,132.69,358.29,132.32,358.18,131.88"/>
<path class="st1" d="M386.07,117.44c-0.46,0.01-8.7,0-8.7,0c-0.46,0-1.04,0.49-1.29,0.87l-15.26,22.45
	c-0.26,0.38-0.56,0.36-0.66-0.08l-1.13-4.92c-0.1-0.45-0.55-0.81-1.01-0.81h-9.81c-0.45,0-0.72,0.38-0.6,0.82l4.4,15.42
	c0.13,0.44,0.14,1.16,0.03,1.6l-2.05,7.81c-0.11,0.44,0.17,0.58,0.63,0.58h9.69c0.46,0,0.93-0.13,1.04-0.58l2.05-7.92
	c0.11-0.44,0.43-1.04,0.7-1.41L389,118.24c0.28-0.36,0.24-0.8-0.21-0.8L386.07,117.44z"/>
<path class="st1" d="M283.94,123.73h-8.85c-0.45,0-0.91,0.16-1,0.61l-2.93,13.69l-2.92,13.11c-0.09,0.44-0.54,0.41-1,0.41h-5.82
	c-5.76,0-5.09-3.64-3.91-9.09c0.01-0.05,3.69-18.13,3.69-18.13c0.08-0.45-0.22-0.61-0.67-0.61h-8.44c-0.46,0-0.91,0.16-1,0.61
	l-3.39,18.11c-1.69,9.79-1.74,18.41,9.62,18.7c0.19,0.01,17.93,0,17.93,0c0.46,0,0.91-0.15,1.01-0.59l3.85-18.17l3.84-18.24
	C283.96,124.14,284.09,123.73,283.94,123.73z"/>
<path class="st1" d="M195.76,123.7h-9.49c-0.46,0-0.91,0.11-1.02,0.56l-1.71,7.41c-0.1,0.44,0.19,0.79,0.65,0.79h9.09
	c0.46,0,0.91-0.41,1.01-0.86l1.65-7.47C195.94,124.13,196.07,123.7,195.76,123.7z"/>
<path class="st1" d="M183.57,134.95c-0.45,0-0.91,0.36-1.01,0.81l-1.28,5.65l-2.86,13.05c0,0-1.52,6.94-1.66,7.37
	c0,0-1.28,5.01-4.34,4.81c-1.42-0.09-3.05-0.42-3.05-0.42h0c-0.85-0.26-0.91,0.63-1.02,1.07l-1.88,8.13
	c-0.11,0.45,0.18,0.85,0.63,0.85c0,0,4.09,0.58,6.97,0.58h0.47c7.13,0,10.9-4.19,13.3-15.57l2.82-13.17l2.65-12.26
	c0.1-0.45-0.17-0.86-0.63-0.86"/>
<path class="st1" d="M306.34,123.64c-15.97,0-19.78,9.87-21.9,19.65c-2.12,9.97-1.94,17.86,14.58,17.86h0.6c6.55,0,14.52,0,14.52,0
	c0.45-0.01,0.9-0.42,0.99-0.86l1.62-6.33c0.09-0.45-0.21-0.58-0.66-0.58h-14.86c-5.38,0-7.31-1.66-7.12-5.38
	c0-0.42,0.48-1.5,0.94-1.5h22.89c1-0.01,1.04-0.59,1.04-0.59C321.3,135.39,321.45,123.64,306.34,123.64 M310.55,139.31
	c0,0.49-1.56,0.4-1.56,0.4l-12.45-0.09c-0.43,0-0.55-0.6-0.58-1.03c0-0.01,0.03-0.52,0.07-0.64c0.96-3.34,3.83-5.24,8.38-5.24
	c5.12,0,6.21,2.54,6.21,5.36"/>
<path class="st1" d="M237.34,150.86c0,0,4.47-10.86,5.49-17.14c1.39-8.4-2.81-20.59-19.07-20.59c-16.15,0-23.16,11.63-25.85,24.28
	c-2.67,12.74,0.83,23.83,16.89,23.74l24.52-0.01c0.45,0,0.92-0.37,1.04-0.8l2.07-7.87c0.11-0.44-0.17-0.8-0.63-0.81l-1.97-0.01
	l-1.97-0.01c-0.39,0-0.61-0.26-0.56-0.59C237.3,150.98,237.31,150.92,237.34,150.86 M228.9,144.19l-1.84,6.29
	c-0.13,0.44-0.65,0.74-1.1,0.74h-9.49c-7.2,0-8.95-5.57-7.2-13.87c1.76-8.49,5.24-13.74,12.32-14.28
	c9.69-0.73,11.67,6.11,9.32,13.97L228.9,144.19z"/>
</svg>
