<svg class="tw-h-full" viewBox="0 0 225 36" fill="currentColor" xmlns="http://www.w3.org/2000/svg">
  <path d="M22.17 35.08zM27.01 6.49c-.13-.01-2.63-.05-2.63-.05s-1.53-1.48-2.1-2.05v30.69l8.9-2.21S27.35 6.96 27.32 6.78c-.02-.16-.15-.27-.31-.29ZM20.15 4.43c-.13-.43-.3-.84-.5-1.24-.75-1.43-1.84-2.18-3.16-2.18-.09 0-.18 0-.27.02-.04-.05-.08-.09-.12-.14-.59-.61-1.33-.91-2.21-.89-1.71.05-3.4 1.28-4.78 3.47-.97 1.54-1.71 3.47-1.92 4.97L3.83 9.48c-.99.31-1.02.34-1.15 1.27-.1.7-2.68 20.71-2.68 20.71l21.46 3.71V4.06c-.11 0-.2.03-.26.04l-1.05.33Zm-3.91 1.21-3.62 1.12c.35-1.34 1.01-2.67 1.83-3.55.3-.33.73-.69 1.23-.9.47.99.57 2.38.56 3.32Zm-2.32-4.5c.4 0 .74.08 1.03.27-.5.27-.95.62-1.32 1.03-1.08 1.16-1.91 2.97-2.24 4.71l-2.97.92c.59-2.74 2.88-6.85 5.52-6.93Zm-3.32 15.6c.11 1.83 4.92 2.22 5.19 6.5.21 3.36-1.78 5.67-4.66 5.85-3.45.22-5.35-1.82-5.35-1.82l.73-3.11s1.91 1.44 3.45 1.35c1-.06 1.36-.88 1.32-1.45-.15-2.38-4.06-2.24-4.31-6.15-.21-3.29 1.95-6.63 6.73-6.93 1.84-.12 2.78.35 2.78.35l-1.09 4.08s-1.22-.55-2.66-.46c-2.12.13-2.14 1.47-2.12 1.8Zm6.78-11.45c-.01-.86-.11-2.07-.52-3.1 1.29.25 1.93 1.71 2.2 2.58-.5.15-1.07.33-1.68.52ZM43.88 20.05c-1.05-.59-1.64-1.08-1.64-1.76 0-.87.8-1.42 2.01-1.42 1.11 0 2.07.31 2.63.59l.99-3.03c-.68-.37-1.92-.71-3.55-.71-3.77 0-6.33 2.13-6.33 5.16 0 1.67 1.21 2.97 2.81 3.89 1.27.74 1.76 1.27 1.76 2.04s-.65 1.45-1.89 1.45c-1.33.03-2.69-.53-3.46-.93l-1.05 3.03c.8.56 2.44 1.02 4.17 1.05 3.86.03 6.61-1.89 6.61-5.28 0-1.82-1.39-3.09-3.06-4.08ZM59.14 13.72c-1.89 0-3.37.9-4.51 2.26l-.06-.03 1.64-8.59h-4.26l-4.14 21.79h4.26l1.42-7.42c.56-2.81 2.01-4.54 3.37-4.54.96 0 1.33.65 1.33 1.58 0 .59-.06 1.27-.19 1.89l-1.61 8.5h4.26l1.67-8.78c.19-.93.31-2.04.31-2.78 0-2.41-1.27-3.86-3.49-3.86ZM72.44 13.72c-5.13 0-8.53 4.64-8.53 9.8 0 3.28 2.04 5.93 5.87 5.93h.03c5.01 0 8.41-4.51 8.41-9.77 0-3.06-1.79-5.96-5.78-5.96Zm-2.1 12.45h-.03c-1.42 0-2.04-1.21-2.04-2.78 0-2.41 1.27-6.4 3.59-6.4 1.51 0 2.01 1.27 2.01 2.57 0 2.6-1.27 6.61-3.52 6.61ZM88.96 13.72c-1.7 0-3.37.93-4.51 2.5h-.06l.25-2.26h-3.77c-.19 1.55-.53 3.86-.87 5.66L77.03 35.2h4.26l1.17-6.3h.09c.49.31 1.45.56 2.5.56 5.01 0 8.28-5.13 8.28-10.32 0-2.84-1.27-5.41-4.39-5.41Zm-4.08 12.51c-.77 0-1.3-.25-1.76-.62l.71-3.99c.49-2.63 1.89-4.39 3.37-4.39 1.3 0 1.7 1.21 1.7 2.35 0 2.75-1.64 6.64-4.02 6.64ZM93.02 29.14h4.27l2.87-15.11H95.9l-2.88 15.11zM98.99 7.57c-1.36 0-2.44 1.08-2.44 2.47 0 1.27.8 2.13 2.01 2.13h.03c1.33 0 2.5-.9 2.5-2.47 0-1.24-.8-2.13-2.1-2.13ZM110.88 14.03h-2.94l.12-.71c.28-1.48 1.11-2.78 2.57-2.78.46 0 .92.07 1.36.22l.8-3.34c-.49-.22-1.27-.37-2.32-.37-1.48 0-3.03.43-4.17 1.42-1.45 1.24-2.13 3.03-2.47 4.85l-.12.71h-1.98l-.62 3.18h1.98l-2.26 11.93h4.26l2.26-11.93h2.94l.59-3.18ZM118.87 20.79c-.62 1.64-.93 2.6-1.27 3.62h-.06c-.06-.99-.19-2.07-.37-3.59l-.68-6.8h-4.48l2.57 13.88c.06.31.03.49-.09.71-.49.96-1.33 1.89-2.32 2.57-.8.59-1.7.96-2.41 1.21l1.17 3.62c.87-.19 2.66-.9 4.17-2.32 1.95-1.82 3.74-4.64 5.59-8.47l5.22-11.19h-4.45l-2.6 6.77ZM141.36 14.43c-.77-.28-1.95-.43-3-.43-5.75 0-9.36 5.87-9.36 10.94 0 2.66 1.36 4.51 3.62 4.51 1.95 0 3.83-1.02 5.53-4.3h.06c-.22 1.67-.4 3.09-.37 3.99h1.3c-.06-1.58.12-3.96.65-6.74l1.58-7.97Zm-2.59 6.4c-.71 3.83-3.43 7.45-5.84 7.45-2.01 0-2.57-1.73-2.53-3.68.03-4.67 3.37-9.43 7.63-9.43.93 0 1.45.09 1.79.22l-1.05 5.44ZM150.97 14c-1.98 0-3.83 1.27-5.16 3.31h-.06l.46-3h-1.27c-.19 1.36-.46 3.15-.83 5.1l-2.97 15.79h1.33l1.17-6.4h.06c.56.31 1.51.65 2.97.65 4.73 0 8.16-5.62 8.16-10.63 0-2.44-1.05-4.82-3.86-4.82Zm-4.17 14.27c-1.21 0-2.19-.31-2.87-.83l.96-5.1c.83-4.48 3.59-7.17 5.69-7.17s2.87 1.98 2.87 3.74c0 3.8-2.72 9.36-6.64 9.36ZM164.82 14c-1.98 0-3.83 1.27-5.16 3.31h-.06l.46-3h-1.27c-.19 1.36-.46 3.15-.83 5.1l-2.97 15.79h1.33l1.17-6.4h.06c.56.31 1.51.65 2.97.65 4.73 0 8.16-5.62 8.16-10.63 0-2.44-1.05-4.82-3.86-4.82Zm-4.17 14.27c-1.21 0-2.19-.31-2.87-.83l.96-5.1c.83-4.48 3.59-7.17 5.69-7.17s2.87 1.98 2.87 3.74c0 3.8-2.72 9.36-6.64 9.36ZM176.53 18.2c0 1.39.8 2.72 2.29 3.68 1.39.9 2.01 1.79 2.01 3.28 0 1.7-1.33 3.09-3.28 3.09-1.08 0-2.07-.43-2.6-.83l-.53 1.11c.49.4 1.67.9 3 .9 2.57 0 4.76-1.64 4.76-4.64 0-1.51-.87-2.87-2.29-3.83-1.21-.83-2.01-1.61-2.01-3 0-1.51 1.21-2.78 3-2.78.87 0 1.64.34 2.1.62l.49-1.14c-.43-.34-1.42-.65-2.44-.65-2.63 0-4.51 1.89-4.51 4.2ZM188.22 28.24c-.93 0-1.33-.53-1.33-1.39 0-.8.12-1.58.31-2.57l1.64-8.84h3.49l.25-1.14h-3.49l.65-3.25-1.48.59-.49 2.66h-2.16l-.22 1.14h2.13l-1.67 8.84c-.25 1.14-.34 1.92-.34 2.72 0 1.24.68 2.41 2.44 2.41.53 0 1.05-.09 1.45-.22l-.09-1.08c-.28.09-.59.12-1.08.12ZM199.65 14c-4.51 0-7.32 5.38-7.32 9.7 0 3.06 1.51 5.75 4.73 5.75h.03c4.79 0 7.29-5.93 7.29-9.74 0-2.69-1.17-5.72-4.73-5.72Zm-2.38 14.27h-.03c-2.32 0-3.52-2.1-3.52-4.7 0-3.8 2.35-8.41 5.81-8.41 2.72 0 3.46 2.6 3.46 4.54 0 3.55-2.35 8.56-5.72 8.56ZM214.12 14.03c-.15 0-.37-.03-.56-.03-1.85 0-3.34 1.58-4.23 3.55h-.06c.16-1.08.29-2.16.4-3.25h-1.21c-.12 1.3-.34 2.97-.71 4.85l-1.89 9.98h1.33l1.42-7.54c.62-3.25 2.78-6.18 4.73-6.18.22 0 .37 0 .49.03l.28-1.42ZM224.16 17.24c0-1.67-1.02-3.25-3.46-3.25-4.23 0-7.23 5.59-7.23 9.86 0 2.84 1.21 5.56 4.67 5.56 1.85 0 3.28-.59 4.05-1.11l-.4-1.05c-.68.4-1.79.99-3.43.99s-2.72-.83-3.25-2.5c-.31-1.08-.28-3.03-.12-3.71 4.85.03 9.18-1.02 9.18-4.79Zm-3.71-2.07c1.39 0 2.32.74 2.32 2.1v.03c0 2.94-3.71 3.59-7.57 3.55.93-3.21 2.97-5.69 5.25-5.69Z"></path>
</svg>