<?xml version="1.0" standalone="no"?>
<!DOCTYPE svg PUBLIC "-//W3C//DTD SVG 20010904//EN"
 "http://www.w3.org/TR/2001/REC-SVG-20010904/DTD/svg10.dtd">
<svg version="1.0" xmlns="http://www.w3.org/2000/svg"
 width="1215.000000pt" height="511.000000pt" viewBox="0 0 1215.000000 511.000000"
 preserveAspectRatio="xMidYMid meet">

<g transform="translate(0.000000,511.000000) scale(0.100000,-0.100000)"
fill="#000000" stroke="none">
<path d="M5975 4745 c-5 -2 -63 -8 -128 -14 -64 -6 -134 -15 -155 -20 -20 -5
-71 -17 -112 -26 -290 -65 -608 -227 -857 -437 -350 -296 -596 -710 -697
-1173 -56 -257 -56 -639 1 -890 68 -306 191 -577 373 -825 83 -113 301 -329
420 -417 277 -204 566 -327 915 -389 76 -14 155 -18 330 -19 127 0 232 4 235
8 3 5 -80 8 -185 7 -357 -2 -635 58 -932 200 -246 118 -423 245 -612 443 -331
347 -525 787 -563 1275 -26 344 34 712 167 1007 167 374 429 686 760 907 186
123 477 248 680 292 145 31 184 36 326 47 220 16 488 -9 674 -63 39 -11 87
-24 108 -29 21 -5 45 -13 55 -18 9 -5 44 -19 77 -32 250 -93 489 -252 706
-468 319 -320 505 -683 586 -1141 23 -132 26 -532 4 -650 -68 -382 -191 -669
-411 -961 -74 -98 -301 -326 -383 -384 -55 -39 -68 -55 -45 -55 20 0 190 145
278 237 309 321 496 686 576 1128 25 136 30 469 10 620 -62 473 -265 885 -600
1221 -292 291 -635 482 -1016 565 -25 5 -63 14 -85 20 -98 23 -460 48 -500 34z"/>
<path d="M5930 4499 c-665 -59 -1236 -463 -1530 -1081 -217 -459 -234 -1000
-45 -1474 271 -677 912 -1135 1640 -1170 172 -9 325 2 325 23 0 11 -7 14 -22
10 -42 -10 -236 -20 -248 -12 -16 10 13 29 72 45 47 12 146 10 181 -5 12 -5
17 -3 17 8 0 21 -51 30 -142 25 -56 -3 -89 -12 -142 -37 -65 -32 -71 -33 -150
-26 -106 9 -314 56 -416 96 -30 11 -63 23 -73 26 -49 15 30 51 114 52 51 1 94
-12 196 -59 64 -30 74 -31 163 -28 86 3 102 7 175 43 69 33 90 39 150 39 39 1
82 -2 98 -7 20 -5 27 -4 27 7 0 18 -92 30 -166 20 -31 -3 -81 -19 -112 -33
-104 -50 -118 -53 -199 -49 -64 3 -92 11 -154 41 -113 54 -220 59 -326 16 -29
-12 -38 -11 -78 9 -41 20 -60 42 -35 42 5 0 50 18 99 40 79 36 97 40 168 40
70 0 87 -4 150 -35 142 -70 238 -71 374 -5 81 40 87 41 169 38 47 -2 93 -7
103 -12 12 -6 17 -4 17 7 0 20 -54 32 -141 31 -54 0 -80 -7 -140 -35 -151 -72
-222 -74 -351 -12 -127 61 -232 63 -358 5 -36 -17 -85 -35 -108 -42 -43 -11
-46 -10 -124 37 -82 49 -162 112 -154 120 2 2 28 -8 58 -24 48 -25 63 -28 153
-28 96 0 103 1 180 40 74 36 87 39 165 40 80 0 92 -3 170 -40 81 -38 90 -40
180 -40 90 0 99 2 179 40 76 36 93 40 160 40 42 0 92 -4 111 -9 34 -8 34 -7
17 10 -15 16 -34 19 -120 19 -99 0 -105 -1 -182 -39 -74 -37 -87 -40 -165 -40
-79 -1 -91 2 -165 38 -132 65 -229 64 -367 -1 -74 -34 -90 -38 -162 -38 -74 1
-89 4 -172 43 -50 23 -97 42 -105 42 -24 0 -112 91 -100 103 17 17 134 -7 199
-41 119 -62 229 -62 360 1 124 60 206 59 339 -4 122 -58 226 -58 340 -1 106
54 210 63 296 27 10 -4 17 -3 17 4 0 25 -72 43 -149 39 -63 -3 -91 -11 -161
-43 -80 -37 -91 -40 -175 -40 -85 1 -95 3 -170 40 -75 38 -85 40 -170 40 -84
0 -95 -3 -170 -39 -67 -33 -93 -40 -161 -44 -79 -4 -84 -3 -175 38 -81 37
-106 44 -179 48 -74 4 -89 7 -112 30 -16 14 -28 31 -28 38 0 21 72 37 151 32
61 -3 88 -10 154 -43 75 -37 86 -39 170 -39 85 -1 95 2 181 42 83 38 99 42
168 42 70 0 85 -4 164 -42 82 -39 93 -42 177 -42 86 -1 95 1 184 42 91 42 97
43 175 39 45 -2 93 -8 109 -12 16 -4 27 -3 27 3 0 13 -45 29 -100 36 -67 9
-147 -8 -235 -50 -70 -33 -89 -37 -155 -37 -67 -1 -85 4 -165 40 -147 67 -226
66 -374 -4 -66 -31 -86 -36 -151 -36 -68 -1 -84 3 -170 43 -90 42 -100 44
-180 43 -54 0 -98 -7 -122 -17 -37 -16 -37 -16 -57 13 -12 16 -21 34 -21 39 0
6 26 23 58 39 50 25 68 28 147 27 85 0 95 -3 179 -43 86 -42 90 -43 175 -39
76 4 95 9 166 44 74 36 86 39 166 39 79 0 91 -3 170 -40 80 -38 89 -40 179
-40 91 0 99 2 175 40 67 33 92 40 156 43 54 3 86 -1 114 -12 42 -18 61 -12 31
9 -26 20 -96 29 -172 22 -48 -3 -85 -15 -142 -43 -71 -36 -83 -39 -162 -39
-79 0 -91 3 -165 40 -77 38 -84 40 -181 40 -96 0 -103 -2 -185 -40 -76 -36
-91 -40 -164 -40 -73 0 -87 3 -160 40 -78 39 -83 40 -185 40 -95 0 -110 -3
-157 -27 -29 -16 -58 -28 -65 -28 -11 0 -58 60 -58 74 0 2 17 10 38 17 20 6
64 26 97 42 53 28 70 31 145 31 77 0 92 -4 158 -37 143 -71 230 -70 380 1 69
33 85 37 157 37 71 -1 89 -5 155 -37 150 -72 228 -72 380 0 67 32 84 36 155
36 55 0 90 -5 112 -16 33 -16 54 -9 30 10 -28 22 -93 34 -162 30 -57 -4 -90
-13 -156 -44 -78 -36 -89 -39 -174 -39 -79 0 -96 4 -144 29 -75 39 -136 56
-202 56 -61 0 -100 -11 -194 -56 -53 -25 -71 -29 -150 -29 -78 1 -97 4 -145
28 -86 44 -130 57 -196 57 -68 0 -102 -9 -189 -50 -101 -48 -110 -48 -139 -1
-14 22 -26 45 -26 50 0 5 27 14 59 19 32 6 90 26 127 44 63 30 77 33 164 33
88 0 101 -3 175 -37 44 -20 100 -39 125 -43 65 -9 158 10 244 51 64 31 84 35
150 36 68 0 84 -4 168 -43 87 -41 98 -44 178 -43 75 0 93 4 155 33 39 18 84
37 100 43 46 14 160 10 201 -7 43 -18 44 -18 44 -5 0 5 -15 17 -32 27 -25 13
-56 17 -123 17 -85 0 -95 -2 -177 -42 -80 -39 -93 -42 -167 -42 -74 0 -89 4
-173 42 -87 40 -99 43 -178 43 -79 -1 -91 -4 -172 -43 -80 -39 -93 -42 -169
-42 -76 0 -89 3 -173 43 -85 39 -97 42 -176 42 -79 0 -91 -3 -174 -43 -77 -37
-97 -43 -144 -40 -50 3 -57 6 -73 33 -33 56 -28 62 64 68 68 4 95 11 162 43
75 36 86 39 170 39 85 0 94 -3 165 -40 73 -38 78 -39 175 -40 97 0 103 2 180
40 74 37 86 40 165 40 78 0 92 -3 170 -40 81 -38 90 -40 180 -40 91 0 99 2
175 40 76 38 85 40 170 40 85 0 94 -2 170 -40 76 -38 84 -40 175 -40 90 0 99
2 179 40 79 37 91 40 170 40 80 0 92 -3 166 -40 76 -37 85 -39 176 -40 92 0
98 1 187 44 88 41 95 43 169 39 53 -3 95 -12 131 -28 51 -22 54 -25 48 -53
-11 -53 -20 -57 -84 -35 -86 30 -165 22 -276 -31 -82 -38 -95 -41 -172 -41
-77 0 -89 3 -171 42 -82 40 -93 43 -173 43 -79 -1 -92 -4 -176 -43 -84 -39
-98 -42 -173 -42 -45 0 -92 5 -104 11 -22 11 -22 11 1 -12 20 -22 31 -24 105
-24 75 1 90 4 173 43 82 38 98 42 169 42 70 0 87 -4 164 -39 139 -64 235 -64
362 -1 74 36 141 49 211 39 61 -8 111 -26 106 -37 -3 -4 -11 -21 -18 -39 l-14
-31 -85 5 c-94 6 -131 -3 -231 -54 -48 -25 -66 -28 -146 -28 -84 0 -95 2 -175
40 -79 37 -90 40 -174 40 -83 0 -96 -3 -168 -37 -42 -20 -93 -40 -112 -44 -19
-3 -35 -11 -35 -16 0 -19 81 1 159 40 68 33 84 36 156 37 72 0 88 -4 158 -37
115 -55 177 -65 261 -44 38 9 93 30 125 45 31 16 75 32 99 36 49 8 142 -2 142
-16 0 -5 -11 -27 -24 -48 -24 -38 -26 -38 -98 -43 -58 -4 -90 -14 -153 -44
-73 -35 -87 -39 -160 -39 -72 0 -88 4 -165 40 -82 38 -89 40 -185 40 -87 -1
-107 -4 -157 -28 -32 -15 -58 -31 -58 -37 0 -15 12 -13 86 21 61 28 76 31 143
27 53 -3 90 -11 121 -27 93 -47 144 -61 217 -61 72 0 85 4 215 64 57 26 138
35 138 15 0 -24 -64 -99 -85 -99 -12 0 -53 -16 -93 -35 -133 -66 -216 -67
-351 -3 -79 38 -93 41 -171 41 -90 0 -151 -16 -133 -34 8 -8 18 -7 33 1 15 8
52 11 109 8 74 -4 97 -10 166 -44 75 -37 85 -39 170 -38 83 0 96 3 168 38 112
55 113 46 3 -71 -60 -64 -95 -77 -195 -71 -62 4 -91 13 -156 44 -60 29 -95 39
-144 42 -80 6 -76 -13 6 -23 34 -4 95 -23 147 -47 74 -34 100 -41 157 -42 38
0 69 -4 69 -8 0 -16 -100 -88 -123 -88 -14 0 -58 16 -98 35 -72 34 -100 39
-63 10 10 -9 44 -27 74 -42 70 -33 69 -32 46 -49 -25 -18 -13 -30 16 -17 38
17 198 155 284 244 221 230 362 482 457 819 9 30 18 69 21 85 2 17 10 57 17
90 21 99 18 490 -4 600 -43 208 -90 348 -175 519 -246 492 -690 850 -1220 986
-181 46 -418 65 -602 49z m450 -38 c19 -5 78 -20 130 -32 605 -140 1118 -613
1323 -1219 58 -170 97 -402 97 -574 0 -54 -4 -75 -14 -79 -19 -8 -86 14 -171
54 -63 31 -78 34 -156 33 -76 -1 -95 -5 -155 -33 -84 -40 -149 -61 -189 -61
-41 0 -116 24 -194 62 -59 29 -76 32 -151 32 -77 0 -93 -4 -167 -38 -159 -71
-209 -71 -361 1 -72 33 -83 36 -168 35 -80 -1 -99 -4 -155 -31 l-64 -30 -21
20 c-13 12 -28 34 -34 50 -11 25 -9 32 13 58 106 127 57 315 -101 382 -121 52
-282 -23 -320 -150 -27 -90 -5 -199 44 -214 16 -5 58 -22 92 -39 35 -16 87
-33 115 -39 28 -5 51 -10 52 -12 2 -1 10 -17 20 -36 25 -50 9 -59 -62 -37 -32
10 -85 32 -118 49 -54 28 -69 31 -151 31 -85 0 -98 -3 -165 -36 -110 -53 -165
-64 -234 -49 -31 7 -91 29 -133 49 -70 33 -84 36 -162 36 -79 -1 -93 -4 -177
-43 -50 -23 -113 -44 -140 -47 -54 -7 -136 13 -205 50 -43 22 -43 23 -46 83
-7 141 33 362 99 548 202 574 675 1021 1249 1180 76 21 202 47 285 59 54 8
459 -3 495 -13z m-530 -1489 c39 -34 43 -43 48 -93 3 -39 -1 -65 -12 -87 -48
-94 -180 -105 -248 -21 -40 50 -46 97 -19 153 29 59 71 86 137 86 45 0 56 -4
94 -38z m-860 -395 c79 -38 91 -40 175 -41 85 0 95 2 179 43 81 38 97 42 167
43 71 0 85 -4 171 -43 87 -41 98 -44 178 -43 79 0 92 3 175 43 82 38 97 42
170 42 67 0 89 -5 140 -29 108 -52 128 -57 210 -56 72 0 89 4 174 43 85 39
100 43 170 43 68 -1 85 -5 166 -43 83 -40 96 -43 175 -43 79 0 92 3 178 42 84
38 99 42 173 42 73 0 88 -4 164 -40 46 -22 92 -40 102 -40 10 0 28 -3 41 -6
20 -6 23 -12 20 -53 -3 -46 -3 -46 -38 -45 -19 1 -71 19 -115 40 -75 36 -85
39 -175 39 -91 0 -99 -2 -175 -40 -69 -34 -91 -40 -161 -43 -79 -4 -84 -3
-170 40 -88 42 -91 43 -189 42 -96 -1 -103 -2 -186 -42 -77 -37 -95 -42 -159
-42 -64 0 -81 5 -159 42 -82 40 -90 42 -181 42 -84 1 -102 -2 -155 -28 -115
-54 -131 -58 -212 -54 -66 4 -89 10 -153 43 -72 37 -79 38 -175 39 -98 1 -102
0 -190 -43 -87 -42 -92 -43 -170 -39 -68 4 -92 10 -160 43 -76 38 -85 40 -175
40 -91 0 -98 -2 -175 -40 -76 -38 -85 -40 -170 -40 -82 0 -96 3 -157 33 l-68
33 0 50 c0 27 3 49 6 49 4 0 21 -9 39 -20 17 -11 60 -27 95 -36 88 -22 164
-12 260 34 130 63 206 63 340 -1z m-5 -123 c77 -37 84 -39 181 -39 96 0 103 2
185 40 76 36 91 40 164 40 73 0 87 -4 160 -40 78 -39 82 -40 185 -40 102 1
107 2 185 40 73 37 87 40 160 40 73 0 88 -4 164 -40 82 -38 89 -40 185 -40 98
0 104 1 181 40 73 36 87 40 160 40 73 0 88 -4 165 -40 82 -39 87 -40 190 -40
95 0 110 3 152 27 127 70 213 74 344 15 44 -20 98 -40 120 -45 32 -6 40 -13
42 -33 2 -14 -2 -37 -7 -52 -10 -26 -11 -26 -53 -13 -24 8 -73 28 -110 45 -58
26 -79 31 -147 31 -84 0 -95 -3 -201 -54 -58 -28 -74 -31 -150 -30 -79 1 -92
4 -173 43 -88 42 -90 43 -180 39 -83 -3 -100 -7 -172 -43 -75 -37 -85 -39
-165 -39 -79 1 -92 4 -171 42 -81 39 -92 42 -174 42 -81 0 -92 -3 -173 -42
-79 -38 -94 -42 -167 -42 -74 -1 -88 2 -165 39 -82 38 -89 40 -185 40 -96 0
-103 -2 -184 -40 -77 -36 -92 -40 -165 -40 -74 0 -88 4 -161 40 -72 35 -89 40
-170 43 -90 4 -93 3 -185 -40 -89 -40 -100 -43 -180 -43 -73 1 -93 5 -140 29
-30 16 -58 34 -62 40 -10 15 -10 99 0 94 130 -63 121 -60 221 -56 81 4 105 9
151 32 93 49 121 56 195 53 57 -3 85 -11 150 -43z m5 -129 c80 -38 88 -40 180
-39 90 0 99 2 175 40 75 37 85 39 170 39 84 -1 95 -3 170 -40 76 -38 84 -40
175 -40 90 0 99 2 175 40 74 36 87 39 165 39 80 1 92 -2 170 -39 81 -38 90
-40 180 -40 90 0 99 2 179 40 79 37 91 40 170 40 80 0 92 -3 166 -40 76 -37
85 -39 175 -40 90 0 99 2 180 40 78 36 92 40 170 40 78 0 92 -3 164 -37 43
-21 89 -38 102 -38 32 0 40 -22 25 -71 -14 -46 -17 -46 -111 1 -129 64 -222
63 -363 -2 -88 -40 -90 -40 -180 -35 -77 4 -102 10 -152 36 -127 65 -228 65
-365 -3 -68 -33 -81 -36 -160 -36 -79 0 -92 3 -160 36 -135 67 -240 68 -365 3
-50 -26 -75 -32 -152 -36 -90 -5 -92 -5 -180 36 -144 66 -221 66 -363 -2 -53
-25 -81 -31 -153 -35 -83 -4 -91 -2 -160 30 -151 72 -235 74 -378 8 -76 -36
-94 -40 -163 -40 -93 0 -172 29 -187 67 -10 26 -12 83 -4 83 3 0 25 -10 48
-22 35 -19 58 -22 142 -22 91 0 105 3 155 29 84 44 129 55 205 52 58 -2 85 -9
155 -42z m9 -129 c139 -64 216 -61 374 14 64 31 73 32 155 28 74 -4 98 -11
164 -42 127 -62 219 -60 353 7 49 25 76 31 147 35 85 4 87 4 180 -39 87 -41
99 -44 178 -44 78 0 92 3 169 40 81 38 90 40 180 40 91 0 100 -2 174 -39 127
-62 219 -61 357 7 59 29 73 32 160 32 89 0 100 -2 173 -37 42 -21 82 -38 87
-38 13 0 13 -33 -2 -65 -15 -32 -23 -32 -99 8 -59 29 -72 32 -159 32 -91 0
-99 -2 -175 -40 -75 -38 -85 -40 -170 -40 -84 0 -95 3 -175 40 -79 37 -90 40
-175 40 -84 0 -95 -3 -175 -40 -79 -38 -90 -40 -175 -40 -85 0 -94 2 -165 40
-72 38 -79 39 -170 40 -92 0 -100 -2 -180 -40 -79 -37 -91 -40 -171 -40 -79 0
-91 3 -170 40 -79 38 -90 40 -175 40 -84 0 -95 -2 -175 -40 -79 -38 -90 -40
-174 -40 -85 0 -95 3 -170 40 -77 38 -84 40 -175 40 -90 0 -99 -3 -173 -39
-91 -44 -173 -56 -256 -36 -56 13 -67 26 -77 89 l-7 41 58 -20 c98 -34 185
-23 310 38 64 31 66 31 155 29 75 -2 95 -7 169 -41z m-37 -111 c94 -47 130
-56 212 -56 73 0 88 4 169 43 81 38 97 43 166 43 69 0 85 -4 162 -40 74 -35
94 -40 172 -43 92 -4 103 -2 217 52 55 26 77 30 145 30 73 0 88 -4 172 -43 83
-38 100 -42 170 -42 88 0 90 0 193 49 67 32 84 36 155 36 72 0 89 -5 175 -43
92 -42 97 -43 185 -39 81 3 99 7 174 43 76 36 92 40 161 40 79 0 124 -14 202
-62 35 -22 37 -25 26 -50 -20 -46 -24 -47 -88 -19 -56 25 -70 28 -153 24 -83
-4 -100 -8 -172 -43 -72 -36 -88 -39 -160 -40 -74 0 -88 4 -175 43 -93 43 -95
44 -185 40 -81 -4 -98 -8 -170 -43 -73 -37 -87 -40 -161 -40 -73 0 -88 4 -165
40 -81 38 -88 40 -185 40 -96 0 -103 -2 -185 -40 -77 -36 -91 -40 -164 -40
-72 1 -88 4 -160 40 -72 35 -89 39 -172 43 -92 4 -92 4 -195 -43 -98 -45 -106
-47 -173 -43 -56 4 -90 14 -161 46 -84 39 -98 42 -174 42 -77 0 -90 -3 -174
-42 -63 -29 -109 -43 -148 -46 -84 -6 -105 2 -128 50 -30 62 -27 72 17 63 21
-4 68 -6 105 -6 57 0 81 7 146 37 42 20 93 40 112 45 60 14 153 2 212 -26z"/>
<path d="M5001 3102 c-8 -3 -11 -67 -11 -208 l0 -204 48 -21 c50 -23 151 -31
205 -16 25 7 28 12 25 45 l-3 37 -90 5 -90 5 -3 176 -2 177 -34 4 c-19 2 -39
2 -45 0z"/>
<path d="M5340 3096 c-10 -10 -15 -378 -5 -388 3 -3 26 2 50 10 l45 15 -2 181
-3 181 -37 6 c-21 3 -42 1 -48 -5z"/>
<path d="M6080 3102 c-14 -5 -13 -337 1 -363 5 -11 14 -17 19 -14 4 3 27 6 50
7 33 1 40 4 34 17 -20 50 -24 89 -23 209 1 73 -2 136 -5 139 -6 7 -60 10 -76
5z"/>
<path d="M6408 3102 l-37 -3 -3 -165 -3 -166 -32 -28 -31 -28 50 -21 c28 -12
54 -21 59 -21 5 0 18 18 29 40 18 35 20 58 20 214 0 96 -3 176 -7 178 -5 2
-25 2 -45 0z"/>
<path d="M6580 3026 c0 -45 -1 -147 -3 -229 l-2 -147 31 0 c64 0 65 2 62 239
l-3 213 -42 2 -43 2 0 -80z"/>
<path d="M6793 3092 c-10 -10 -13 -57 -13 -188 l0 -175 48 3 47 3 3 144 3 143
70 -4 c65 -3 74 -7 100 -35 40 -45 55 -103 41 -152 -14 -45 -67 -101 -96 -101
-16 -1 -12 -5 14 -18 89 -44 86 -43 119 -12 49 47 65 87 65 165 1 81 -22 135
-75 180 -50 41 -74 48 -198 54 -88 5 -118 3 -128 -7z"/>
<path d="M6396 1593 c-4 -104 -9 -252 -11 -329 -3 -78 -7 -148 -9 -155 -2 -8
-7 -122 -10 -254 -8 -304 -16 -502 -21 -537 -3 -16 -2 -28 1 -28 13 0 154 51
224 82 14 6 34 14 45 18 115 42 142 53 157 61 10 5 46 19 80 30 35 12 66 26
69 31 3 5 8 9 10 8 7 -3 63 12 74 20 6 4 75 31 155 60 80 30 147 56 150 59 3
3 12 7 20 9 8 2 29 10 45 17 17 7 39 16 50 19 17 5 -12 39 -178 208 -108 112
-202 202 -207 201 -6 -2 -9 1 -7 6 4 14 -187 211 -201 206 -8 -3 -10 0 -6 6 8
13 -135 161 -148 153 -5 -3 -7 -1 -6 4 2 5 -58 73 -133 151 l-137 141 -6 -187z
m48 118 c3 -5 -1 -11 -9 -14 -9 -4 -12 -1 -8 9 6 16 10 17 17 5z m186 -196 c0
-5 -5 -3 -10 5 -5 8 -10 20 -10 25 0 6 5 3 10 -5 5 -8 10 -19 10 -25z m584
-591 c3 -8 2 -12 -4 -9 -6 3 -10 10 -10 16 0 14 7 11 14 -7z"/>
</g>
</svg>
